<svg width="128" height="128" viewBox="0 0 128 128" fill="none" xmlns="http://www.w3.org/2000/svg">
<rect width="128" height="128" rx="15" fill="black"/>
<path d="M71.2796 45.4633C71.5601 45.439 71.8331 45.3597 72.0829 45.2298C72.3328 45.0999 72.5545 44.9221 72.7355 44.7063C72.9164 44.4907 73.0531 44.2414 73.1374 43.9728C73.2219 43.7041 73.2526 43.4216 73.2277 43.1411C73.2277 43.1411 73.2277 43.1025 73.2277 43.0861V40.3731C73.2598 40.0935 73.2365 39.8101 73.159 39.5394C73.0814 39.2688 72.9513 39.0161 72.776 38.7957C72.6007 38.5754 72.3836 38.3919 72.1372 38.2556C71.8908 38.1193 71.6199 38.0329 71.3401 38.0015H67.4332V32.0474C68.1522 31.1845 68.5422 30.0946 68.5337 28.9714C68.6122 28.3694 68.5654 27.7576 68.3961 27.1746C68.2268 26.5916 67.9387 26.0499 67.55 25.5836C67.1613 25.1172 66.6803 24.7363 66.1373 24.4648C65.5943 24.1933 65.001 24.037 64.3947 24.0058C63.7884 23.9746 63.1822 24.0691 62.6143 24.2835C62.0462 24.4978 61.5287 24.8273 61.0942 25.2513C60.6596 25.6752 60.3175 26.1845 60.0892 26.747C59.8609 27.3096 59.7514 27.9132 59.7678 28.5201C59.7568 28.6703 59.7568 28.8211 59.7678 28.9714C59.7563 30.0951 60.1467 31.186 60.8684 32.0474V37.9959H57.0163C56.7353 38.0202 56.4618 38.0997 56.2117 38.2299C55.9615 38.3601 55.7395 38.5385 55.5584 38.7548C55.3774 38.9711 55.2409 39.2211 55.1568 39.4904C55.0727 39.7596 55.0426 40.0428 55.0683 40.3237C55.0657 40.34 55.0657 40.3568 55.0683 40.3731V43.0861C55.0354 43.3659 55.0582 43.6495 55.1354 43.9206C55.2126 44.1915 55.3427 44.4445 55.5182 44.665C55.6936 44.8855 55.911 45.069 56.1577 45.2051C56.4045 45.3412 56.6757 45.427 56.9558 45.4578H60.8078L59.7073 94.7795C59.7009 94.9675 59.7328 95.1546 59.8008 95.3299L62.7778 103.089C62.8788 103.357 63.0591 103.587 63.2946 103.75C63.53 103.913 63.8094 104 64.0956 104C64.382 104 64.6614 103.913 64.8968 103.75C65.1323 103.587 65.3126 103.357 65.4136 103.089L68.3906 95.3299C68.4559 95.1539 68.4877 94.9672 68.4843 94.7795L67.3837 45.4578L71.2796 45.4633Z" fill="url(#paint0_linear_2262_68)"/>
<path d="M43 52.2044C43 58.8078 43.2972 67.2986 45.6193 74.7934C46.7128 78.5503 48.5174 82.0623 50.9351 85.1387C52.8576 87.5094 55.255 89.4513 57.9732 90.8397L58.9637 45.9697L43.974 50.8617C43.6914 50.9552 43.4453 51.1351 43.2705 51.376C43.0957 51.617 43.0011 51.9068 43 52.2044Z" fill="url(#paint1_linear_2262_68)"/>
<path d="M84.3374 50.8617L69.3643 45.9697L70.3547 90.8397C73.0706 89.4478 75.4674 87.5064 77.3928 85.1387C79.8085 82.061 81.6129 78.5494 82.7085 74.7934C85.0252 67.2986 85.3225 58.7857 85.3225 52.2044C85.3234 51.907 85.2302 51.617 85.0562 51.3758C84.8823 51.1345 84.6364 50.9546 84.354 50.8617H84.3374Z" fill="url(#paint2_linear_2262_68)"/>
<defs>
<linearGradient id="paint0_linear_2262_68" x1="64.1534" y1="27.3535" x2="64.1534" y2="102.274" gradientUnits="userSpaceOnUse">
<stop stop-color="#FFD43B"/>
<stop offset="1" stop-color="#F59F00"/>
</linearGradient>
<linearGradient id="paint1_linear_2262_68" x1="50.9791" y1="45.9697" x2="50.9791" y2="90.8397" gradientUnits="userSpaceOnUse">
<stop stop-color="#FCC419"/>
<stop offset="1" stop-color="#E67700"/>
</linearGradient>
<linearGradient id="paint2_linear_2262_68" x1="77.3269" y1="45.9697" x2="77.3269" y2="101.867" gradientUnits="userSpaceOnUse">
<stop stop-color="#FCC419"/>
<stop offset="1" stop-color="#E67700"/>
</linearGradient>
</defs>
</svg>
