<?xml version="1.0" encoding="UTF-8"?>
<svg id="Layer_1" xmlns="http://www.w3.org/2000/svg" xmlns:xlink="http://www.w3.org/1999/xlink" version="1.1" viewBox="0 0 128 127">
  <!-- Generator: Adobe Illustrator 29.0.1, SVG Export Plug-In . SVG Version: 2.1.0 Build 192)  -->
  <defs>
    <style>
      .st0 {
        fill: url(#linear-gradient2);
      }

      .st1 {
        fill: url(#linear-gradient1);
      }

      .st2 {
        fill: url(#linear-gradient3);
      }

      .st3 {
        fill: url(#linear-gradient);
      }

      .st4 {
        fill: #fff;
      }
    </style>
    <linearGradient id="linear-gradient" x1="0" y1="63.5" x2="128" y2="63.5" gradientUnits="userSpaceOnUse">
      <stop offset="0" stop-color="#002e40"/>
      <stop offset="1" stop-color="#07525a"/>
    </linearGradient>
    <linearGradient id="linear-gradient1" x1="31.93" y1="63.5" x2="101.07" y2="63.5" xlink:href="#linear-gradient"/>
    <linearGradient id="linear-gradient2" x1="89.6" y1="47.36" x2="106.61" y2="47.36" xlink:href="#linear-gradient"/>
    <linearGradient id="linear-gradient3" x1="21.39" y1="51.86" x2="47.45" y2="51.86" xlink:href="#linear-gradient"/>
  </defs>
  <g>
    <rect class="st4" x="0" width="128" height="127" rx="40.35" ry="40.35"/>
    <path class="st3" d="M87.65,1.61c21.36,0,38.73,17.38,38.73,38.73v46.3c0,21.36-17.38,38.73-38.73,38.73h-47.3c-21.36,0-38.73-17.38-38.73-38.73v-46.3C1.61,18.99,18.99,1.61,40.35,1.61h47.3M87.65,0h-47.3C18.06,0,0,18.06,0,40.35v46.3c0,22.28,18.06,40.35,40.35,40.35h47.3c22.28,0,40.35-18.06,40.35-40.35v-46.3C128,18.06,109.94,0,87.65,0h0Z"/>
  </g>
  <path class="st1" d="M99.74,73.93l-3.75-1.35c-.73-2.91-1.89-5.68-3.47-8.28l1.69-3.6c.36-.77.2-1.67-.4-2.27l-5.73-5.68c-.6-.6-1.52-.76-2.29-.4l-3.63,1.68c-1.9-1.14-3.91-2.06-5.99-2.76,0,0,0,0,0,0v-5s9.14-15.69,9.14-15.69c.38-.65.45-1.44.2-2.14l-4.99-13.87c-.37-1.02-1.34-1.7-2.43-1.7h-3.46c-1.43,0-2.58,1.15-2.58,2.56v12.26l-5.55,4.43-5.55-4.43v-12.26c0-1.42-1.16-2.56-2.58-2.56h-3.45c-1.09,0-2.07.68-2.43,1.7l-4.99,13.86c-.26.71-.18,1.49.2,2.14l9.14,15.69v5s0,0,0,0c-2.08.7-4.08,1.62-5.99,2.76l-3.63-1.68c-.77-.36-1.69-.2-2.29.4l-5.73,5.68c-.6.6-.76,1.5-.4,2.27l1.69,3.6c-1.58,2.59-2.74,5.37-3.47,8.28l-3.75,1.35c-.8.29-1.33,1.04-1.33,1.89v8.04c0,.84.53,1.6,1.33,1.89l3.75,1.35c.73,2.91,1.89,5.68,3.47,8.28l-1.69,3.6c-.36.77-.2,1.67.4,2.27l5.73,5.68c.6.6,1.52.76,2.29.4l3.63-1.68c2.61,1.57,5.41,2.72,8.34,3.44l1.37,3.72c.29.79,1.05,1.32,1.9,1.32h8.1c.85,0,1.61-.53,1.9-1.32l1.37-3.72c2.93-.72,5.73-1.87,8.34-3.44l3.63,1.68c.77.36,1.69.2,2.29-.4l5.73-5.68c.6-.6.76-1.5.4-2.27l-1.69-3.6c1.58-2.59,2.74-5.37,3.47-8.28l3.75-1.35c.8-.29,1.33-1.04,1.33-1.89v-8.04c0-.84-.53-1.6-1.33-1.89ZM75.03,50.91s-.02,0-.03,0c.01,0,.02,0,.03,0ZM58,50.9s-.02,0-.03.01c.01,0,.02,0,.03-.01ZM66.5,97.93c-10.05,0-18.23-8.11-18.23-18.09s8.18-18.09,18.23-18.09,18.23,8.11,18.23,18.09-8.18,18.09-18.23,18.09Z"/>
  <path class="st0" d="M106.37,41.95l-2.81-2.79c-.26-.26-.66-.3-.97-.12l-7.03,4.18c-.24.14-.39.4-.39.68v1.9l-5.39,5.35c-.25.25-.25.66,0,.91l3.58,3.56c.25.25.66.25.91,0l5.39-5.35h1.92c.28,0,.54-.15.68-.38l4.22-6.97c.19-.31.14-.71-.12-.96Z"/>
  <path class="st2" d="M21.39,56.89c0,.27.11.52.3.71l7.06,6.91c.19.19.45.29.7.29s.51-.1.71-.29l3.53-3.46c.19-.19.3-.44.3-.71v-2.46h2.53c.26,0,.51-.1.7-.28l6.41-6.25c.19-.19.3-.44.3-.71,0-.27-.11-.52-.3-.71l-3.05-2.98c.61-1.3,2.44-4.5,6.19-5.73.41-.14.69-.52.69-.94,0-.43-.28-.81-.69-.94-5.98-1.95-11.73,3.75-14.49,6.49-2.64,2.62-3.45,5.24-3.71,6.62h-2.64c-.26,0-.52.1-.7.29l-3.53,3.45c-.19.19-.3.44-.3.71Z"/>
</svg>