<svg width="128" height="128" viewBox="0 0 128 128" fill="none" xmlns="http://www.w3.org/2000/svg">
<path d="M116 0H12C5.37258 0 0 5.37258 0 12V116C0 122.627 5.37258 128 12 128H116C122.627 128 128 122.627 128 116V12C128 5.37258 122.627 0 116 0Z" fill="url(#paint0_linear_812_1112)"/>
<path d="M19.4932 91.407H12.1694V93.6735H10.0066V87.6862C9.97095 87.2589 10.0798 86.8324 10.316 86.4732C10.5522 86.1143 10.9023 85.8431 11.3112 85.703C11.5079 85.6376 11.714 85.6044 11.9215 85.6047H19.7144C20.0861 85.6059 20.4496 85.7135 20.7609 85.9145C21.0722 86.1155 21.3182 86.4014 21.4691 86.738C21.5853 87.0455 21.6397 87.373 21.6293 87.7013V93.6962H19.4932V91.407ZM12.1694 89.2803H19.4932V87.7164H12.1694V89.2803Z" fill="#DBEAFE"/>
<path d="M25.2419 85.5594C25.2686 85.5594 25.2686 85.5594 25.2686 85.6047V93.6811C25.2686 93.7075 25.2686 93.7226 25.2419 93.7226H23.1516C23.1516 93.7226 23.1211 93.7226 23.1211 93.6811V85.6047C23.1211 85.5745 23.1211 85.5594 23.1516 85.5594H25.2419Z" fill="#DBEAFE"/>
<path d="M33.206 93.6811C32.8777 93.6679 32.5583 93.5708 32.279 93.3993C31.9996 93.2282 31.7697 92.9879 31.6116 92.7027C31.4605 92.4402 31.3804 92.1436 31.3789 91.8414V87.4293C31.3886 87.101 31.4845 86.7814 31.6571 86.5011C31.8296 86.2209 32.0729 85.99 32.363 85.8314C32.6592 85.6807 32.9876 85.6029 33.3205 85.6047H43.0321V87.7164H33.5303V91.5657H43.0664V93.6811H33.206Z" fill="#DBEAFE"/>
<path d="M53.6972 85.6047C54.0714 85.6032 54.438 85.7098 54.7523 85.9111C55.0662 86.1121 55.3149 86.3995 55.4671 86.738C55.5793 87.036 55.6338 87.3526 55.6273 87.671V91.5808C55.6601 92.11 55.482 92.6306 55.1314 93.0314C54.9613 93.2248 54.7523 93.3812 54.5181 93.4903C54.2835 93.5995 54.0287 93.6596 53.7697 93.666H45.8433C45.5066 93.655 45.1789 93.5557 44.8935 93.3785C44.608 93.2013 44.3751 92.9524 44.2183 92.6574C44.0481 92.3246 43.9692 91.9532 43.9894 91.5808V87.7315C43.9894 86.8978 44.2641 86.3085 44.8134 85.9636C45.1271 85.72 45.5172 85.593 45.9157 85.6047H53.6972ZM46.1484 91.5657H53.4645V87.7164H46.1484V91.5657Z" fill="#DBEAFE"/>
<path d="M63.0854 88.2754C63.1579 88.2754 63.2036 88.3208 63.2036 88.3926V89.8847C63.2048 89.9002 63.2025 89.916 63.1968 89.9308C63.1914 89.9455 63.1827 89.9587 63.1716 89.97C63.1602 89.981 63.1468 89.9897 63.1319 89.995C63.1171 90.0006 63.101 90.0029 63.0854 90.0018H57.2226C57.2069 90.0029 57.1913 90.0006 57.1764 89.9954C57.1619 89.9897 57.1486 89.981 57.1375 89.9697C57.1265 89.9587 57.1184 89.9451 57.1131 89.9304C57.1081 89.9157 57.1062 89.9002 57.1081 89.8847V88.3926C57.1089 88.3623 57.1211 88.3336 57.1425 88.3121C57.1635 88.2902 57.1921 88.2773 57.2226 88.2754H63.0854Z" fill="#DBEAFE"/>
<path d="M75.6081 85.6047C75.9567 85.6032 76.2974 85.7071 76.585 85.902C76.8722 86.097 77.0931 86.3742 77.2178 86.6964C77.3105 86.979 77.3505 87.2759 77.336 87.5728V90.3606C77.378 90.8563 77.2277 91.3492 76.9165 91.7394C76.7261 91.9495 76.4892 92.113 76.2249 92.2177C75.9602 92.3227 75.6748 92.3658 75.3907 92.3438H66.8158V93.6282C66.815 93.6358 66.8116 93.6429 66.8059 93.6486C66.8005 93.6543 66.7933 93.6577 66.7853 93.6584H64.7102C64.6797 93.6584 64.6797 93.6584 64.6797 93.6282V87.2971C64.6797 86.9579 64.7823 86.6262 64.9738 86.3448C65.1656 86.0633 65.4376 85.8454 65.7554 85.7181C65.9556 85.6444 66.1673 85.6063 66.3809 85.6047H75.6081ZM66.8158 90.202H75.1885V87.7164H66.8158V90.202Z" fill="#DBEAFE"/>
<path d="M80.6882 85.5594C80.7149 85.5594 80.7149 85.5594 80.7149 85.6047V93.6811C80.7149 93.7075 80.7149 93.7226 80.6882 93.7226H78.5979C78.5979 93.7226 78.5674 93.7226 78.5674 93.6811V85.6047C78.5674 85.5745 78.5674 85.5594 78.5979 85.5594H80.6882Z" fill="#DBEAFE"/>
<path d="M84.0539 93.6811C83.6324 93.675 83.2273 93.5209 82.9096 93.2467C82.429 92.9029 82.1963 92.3287 82.1963 91.5392V85.5594H84.3591V91.5657H93.9372V93.6811H84.0539Z" fill="#DBEAFE"/>
<path d="M104.529 85.6047C104.904 85.6006 105.272 85.7056 105.586 85.9073C105.901 86.1087 106.149 86.3976 106.299 86.738C106.413 87.0357 106.467 87.3526 106.459 87.671V91.5808C106.493 92.1093 106.316 92.6302 105.967 93.0314C105.796 93.2248 105.586 93.3812 105.351 93.4903C105.116 93.5999 104.861 93.6596 104.601 93.666H96.6788C96.3419 93.655 96.0143 93.5557 95.729 93.3785C95.4436 93.2013 95.2106 92.9524 95.0538 92.6574C94.8821 92.325 94.802 91.9536 94.8211 91.5808V87.7315C94.8211 86.8978 95.0969 86.3085 95.6489 85.9636C95.9628 85.72 96.3526 85.593 96.7512 85.6047H104.529ZM96.9839 91.5657H104.296V87.7164H96.9839V91.5657Z" fill="#DBEAFE"/>
<path d="M118.795 85.5594C118.821 85.5594 118.837 85.5594 118.837 85.6047V87.6446C118.837 87.6503 118.837 87.6559 118.835 87.6612C118.833 87.6665 118.83 87.6714 118.825 87.6752C118.822 87.6794 118.817 87.6824 118.811 87.6843C118.806 87.6862 118.8 87.6869 118.795 87.6862H114.091V93.6811C114.091 93.7075 114.091 93.7226 114.065 93.7226H111.974C111.974 93.7226 111.944 93.7226 111.944 93.6811V87.6862H107.244C107.214 87.6862 107.214 87.6862 107.214 87.6446V85.6047C107.214 85.5745 107.214 85.5594 107.244 85.5594H118.795Z" fill="#DBEAFE"/>
<path d="M75.5465 62.7432H53.3082C51.9079 62.7695 50.5168 62.5192 49.2153 62.0069C47.914 61.4945 46.7289 60.7303 45.7293 59.759C44.7296 58.7877 43.9356 57.6288 43.3935 56.3501C42.8514 55.0713 42.5723 53.6984 42.5723 52.3115C42.5723 50.9247 42.8514 49.5518 43.3935 48.273C43.9356 46.9943 44.7296 45.8354 45.7293 44.8641C46.7289 43.8928 47.914 43.1286 49.2153 42.6162C50.5168 42.1038 51.9079 41.8535 53.3082 41.8799H75.5465C78.3055 41.9319 80.9336 43.0538 82.8664 45.0045C84.7988 46.9551 85.8814 49.5788 85.8814 52.3115C85.8814 55.0443 84.7988 57.668 82.8664 59.6186C80.9336 61.5693 78.3055 62.6912 75.5465 62.7432ZM53.3082 44.1993C51.1332 44.1993 49.0471 45.055 47.5092 46.5781C45.9712 48.1012 45.1072 50.167 45.1072 52.321C45.1072 54.475 45.9712 56.5408 47.5092 58.0639C49.0471 59.587 51.1332 60.4427 53.3082 60.4427H75.5465C77.7215 60.4427 79.8076 59.587 81.3456 58.0639C82.8836 56.5408 83.7476 54.475 83.7476 52.321C83.7476 50.167 82.8836 48.1012 81.3456 46.5781C79.8076 45.055 77.7215 44.1993 75.5465 44.1993H53.3082Z" fill="url(#paint1_linear_812_1112)"/>
<path d="M26.9728 47.7804V56.8464C26.9638 58.0338 27.408 59.1808 28.2164 60.0577C29.0248 60.9347 30.1378 61.4769 31.3327 61.5759C32.0778 61.6253 32.824 61.4978 33.5093 61.2041C34.1947 60.9105 34.7993 60.459 35.273 59.8873C35.5122 59.591 35.6724 59.24 35.7391 58.8665C35.8058 58.4929 35.7767 58.1088 35.6545 57.7493C34.4891 54.225 34.4891 50.4245 35.6545 46.9002C35.7767 46.5407 35.8058 46.1565 35.7391 45.783C35.6724 45.4094 35.5122 45.0584 35.273 44.7621C34.7993 44.1904 34.1947 43.739 33.5093 43.4453C32.824 43.1516 32.0778 43.0242 31.3327 43.0736C30.1415 43.1714 29.0312 43.7102 28.2232 44.5825C27.4152 45.4548 26.9687 46.5966 26.9728 47.7804ZM28.1438 47.6784C28.143 46.9596 28.3672 46.2583 28.7856 45.671C29.2039 45.0837 29.7959 44.6393 30.4799 44.399C31.1639 44.1587 31.9062 44.1344 32.6048 44.3293C33.3034 44.5242 33.9238 44.9288 34.3805 45.4874C34.4974 45.6287 34.5765 45.7969 34.6105 45.9765C34.6445 46.1561 34.6323 46.3412 34.575 46.5149C33.3136 50.2797 33.3136 54.3471 34.575 58.1119C34.6323 58.2855 34.6445 58.4707 34.6105 58.6503C34.5765 58.8299 34.4974 58.9981 34.3805 59.1394C33.9238 59.698 33.3034 60.1026 32.6048 60.2975C31.9062 60.4924 31.1639 60.468 30.4799 60.2278C29.7959 59.9875 29.2039 59.543 28.7856 58.9558C28.3672 58.3685 28.143 57.6672 28.1438 56.9484V47.6784Z" fill="#DBEAFE"/>
<path d="M97.5214 43.051C96.7765 43.0016 96.03 43.129 95.3449 43.4227C94.6595 43.7164 94.0549 44.1678 93.5811 44.7395C93.342 45.0358 93.1817 45.3869 93.115 45.7604C93.0482 46.1339 93.0776 46.5181 93.1997 46.8776C94.365 50.4019 94.365 54.2024 93.1997 57.7267C93.0776 58.0862 93.0482 58.4703 93.115 58.8439C93.1817 59.2174 93.342 59.5684 93.5811 59.8647C94.0549 60.4364 94.6595 60.8879 95.3449 61.1815C96.03 61.4753 96.7765 61.6027 97.5214 61.5533C98.7161 61.4543 99.8292 60.9121 100.638 60.0351C101.446 59.1582 101.891 58.0112 101.881 56.8238V47.7578C101.886 46.574 101.439 45.4322 100.631 44.5599C99.8231 43.6876 98.7127 43.1488 97.5214 43.051ZM100.71 56.9485C100.711 57.6672 100.487 58.3685 100.069 58.9558C99.6503 59.5431 99.0583 59.9875 98.3744 60.2278C97.6904 60.4681 96.9477 60.4925 96.2493 60.2976C95.5509 60.1026 94.9303 59.698 94.4737 59.1395C94.3566 58.9981 94.2776 58.8299 94.2437 58.6504C94.2097 58.4708 94.2219 58.2856 94.2792 58.112C95.5406 54.3472 95.5406 50.2797 94.2792 46.515C94.2219 46.3413 94.2097 46.1561 94.2437 45.9766C94.2776 45.797 94.3566 45.6288 94.4737 45.4875C94.9303 44.9289 95.5509 44.5243 96.2493 44.3294C96.9477 44.1345 97.6904 44.1588 98.3744 44.3991C99.0583 44.6394 99.6503 45.0838 100.069 45.6711C100.487 46.2584 100.711 46.9597 100.71 47.6785V56.9485Z" fill="#DBEAFE"/>
<path d="M55.181 56.9485C57.1001 56.9485 58.656 54.8733 58.656 52.3134C58.656 49.7536 57.1001 47.6784 55.181 47.6784C53.262 47.6784 51.7061 49.7536 51.7061 52.3134C51.7061 54.8733 53.262 56.9485 55.181 56.9485Z" fill="#DBEAFE"/>
<path d="M73.6781 56.9485C75.5971 56.9485 77.1531 54.8733 77.1531 52.3134C77.1531 49.7536 75.5971 47.6784 73.6781 47.6784C71.759 47.6784 70.2031 49.7536 70.2031 52.3134C70.2031 54.8733 71.759 56.9485 73.6781 56.9485Z" fill="#DBEAFE"/>
<path d="M73.7916 34H55.0626C50.3254 33.9999 45.7641 35.7779 42.2979 38.9759C38.8318 42.1738 36.7185 46.5539 36.3838 51.2336C36.049 55.9133 37.5178 60.5447 40.4941 64.1945C43.4704 67.8444 47.733 70.2414 52.423 70.9026C53.2317 70.54 54.0567 70.2151 54.8986 69.928C50.2449 69.9065 45.7906 68.0551 42.5154 64.7811C39.2401 61.5071 37.4124 57.0788 37.4341 52.4702C37.4558 47.8616 39.3253 43.4504 42.6313 40.2069C45.9373 36.9634 50.409 35.1533 55.0626 35.1748H73.7916C78.4452 35.1533 82.9169 36.9634 86.2229 40.2069C89.5288 43.4504 91.3983 47.8616 91.42 52.4702C91.4418 57.0788 89.6139 61.5071 86.3388 64.7811C83.0637 68.0551 78.6092 69.9065 73.9556 69.928C74.7974 70.2151 75.6225 70.54 76.4312 70.9026C81.121 70.2414 85.3837 67.8444 88.3601 64.1945C91.3365 60.5447 92.8051 55.9133 92.4705 51.2336C92.1356 46.5539 90.0224 42.1738 86.5562 38.9759C83.09 35.7779 78.5287 33.9999 73.7916 34Z" fill="#DBEAFE"/>
<path d="M65.0601 68.7457C61.8537 68.7489 58.6709 68.2005 55.6537 67.1251C55.0128 66.901 54.351 66.7415 53.6778 66.6491C52.4327 66.4695 51.2098 66.1645 50.0273 65.7387C54.3468 68.3478 59.2823 69.7879 64.3403 69.9152C69.3983 70.0425 74.4017 68.8524 78.8493 66.464C78.0586 66.6237 77.2587 66.7334 76.4539 66.7927C75.6601 66.8453 74.8766 67.0003 74.1232 67.2535C71.2071 68.2471 68.1441 68.7514 65.0601 68.7457Z" fill="#DBEAFE"/>
<path d="M72.2928 74.8804C67.1014 75.9449 61.7455 75.9539 56.5506 74.9068C55.0477 74.6046 54.1894 73.3958 54.6129 72.3381C55.0363 71.2728 56.3789 70.7062 57.6415 70.9668C62.1197 71.8859 66.7394 71.895 71.221 70.9933C72.4874 70.744 73.8262 71.2955 74.242 72.3381C74.654 73.3769 73.7957 74.5706 72.2928 74.8804Z" fill="url(#paint2_linear_812_1112)"/>
<path d="M63.7977 74.0871C63.5433 73.5329 63.3121 72.9754 63.1034 72.4136C62.6724 72.4136 62.2452 72.3721 61.8218 72.3419C61.5193 72.8707 61.205 73.3969 60.8796 73.9209C60.7423 73.3542 60.6164 72.7876 60.4982 72.2172C60.0633 72.1681 59.6361 72.1114 59.2051 72.0434C59.3702 72.9074 59.5675 73.7709 59.7963 74.6348C60.3685 74.7028 60.9407 74.7595 61.5166 74.801C61.8142 74.3251 62.1041 73.8453 62.3787 73.3618C62.5771 73.8718 62.7868 74.3779 63.0119 74.8728C63.5867 74.8928 64.1627 74.9004 64.7399 74.8955C65.0984 74.0682 65.4226 73.2409 65.7202 72.4061C65.2853 72.4061 64.8543 72.4287 64.4194 72.4287C64.226 72.9878 64.0189 73.5405 63.7977 74.0871Z" fill="#0B1223"/>
<path d="M69.5467 72.5005C69.3762 72.3747 69.1771 72.2931 68.9669 72.2625C68.6873 72.224 68.4035 72.224 68.1239 72.2625C67.4335 72.3343 66.7431 72.3834 66.0488 72.4174C66.1022 73.2383 66.153 74.058 66.2014 74.8766C66.6477 74.8539 67.094 74.8275 67.5403 74.7897L67.4678 74.1249C67.7691 74.0984 68.0743 74.072 68.3756 74.038C68.672 74.0111 68.9627 73.9398 69.2377 73.8264C69.4334 73.7471 69.6035 73.6164 69.7298 73.4487C69.7778 73.3765 69.811 73.2957 69.8274 73.2107C69.8438 73.1257 69.8431 73.0384 69.8251 72.9538C69.7931 72.7736 69.6935 72.6116 69.5467 72.5005ZM68.4786 73.29C68.3955 73.3467 68.2974 73.378 68.1964 73.3807C67.9332 73.4109 67.6662 73.4336 67.3991 73.4562L67.3457 72.984C67.6089 72.9652 67.8721 72.9387 68.1315 72.9123C68.2318 72.8987 68.3337 72.9092 68.429 72.9425C68.4626 72.9561 68.492 72.9784 68.5141 73.0071C68.5362 73.0354 68.5503 73.0694 68.5549 73.1049C68.5618 73.1397 68.5584 73.1759 68.545 73.2088C68.5313 73.2417 68.5084 73.27 68.4786 73.29Z" fill="#0B1223"/>
<defs>
<linearGradient id="paint0_linear_812_1112" x1="64" y1="128" x2="64" y2="0" gradientUnits="userSpaceOnUse">
<stop stop-opacity="0.91"/>
<stop offset="1"/>
</linearGradient>
<linearGradient id="paint1_linear_812_1112" x1="42.7727" y1="52.3134" x2="86.0782" y2="52.3134" gradientUnits="userSpaceOnUse">
<stop stop-color="#56E9FF"/>
<stop offset="0.5" stop-color="#7097FF"/>
<stop offset="1" stop-color="#B753FF"/>
</linearGradient>
<linearGradient id="paint2_linear_812_1112" x1="54.506" y1="73.2938" x2="74.345" y2="73.2938" gradientUnits="userSpaceOnUse">
<stop stop-color="#B753FF"/>
<stop offset="0.56" stop-color="#7097FF"/>
<stop offset="1" stop-color="#56E9FF"/>
</linearGradient>
</defs>
</svg>
