<?xml version="1.0" encoding="utf-8"?>
<!-- Generator: Adobe Illustrator 24.0.2, SVG Export Plug-In . SVG Version: 6.00 Build 0)  -->
<svg version="1.1" id="Layer_1" xmlns="http://www.w3.org/2000/svg" xmlns:xlink="http://www.w3.org/1999/xlink" x="0px" y="0px"
	 viewBox="0 0 98 98" style="enable-background:new 0 0 98 98;" xml:space="preserve">
<style type="text/css">
	.st0{fill:url(#SVGID_1_);stroke:url(#SVGID_2_);stroke-width:2;stroke-miterlimit:10;}
	.st1{fill:url(#SVGID_3_);}
	.st2{fill:url(#SVGID_4_);}
	.st3{fill:url(#SVGID_5_);}
	.st4{fill:url(#SVGID_6_);}
	.st5{fill:url(#SVGID_7_);}
	.st6{fill:url(#SVGID_8_);}
	.st7{fill:url(#SVGID_9_);}
	.st8{fill:url(#SVGID_10_);}
	.st9{fill:url(#SVGID_11_);}
	.st10{fill:url(#SVGID_12_);}
	.st11{fill:url(#SVGID_13_);}
	.st12{fill:url(#SVGID_14_);}
	.st13{fill:#FFFFFF;}
</style>
<g>
	<linearGradient id="SVGID_1_" gradientUnits="userSpaceOnUse" x1="1" y1="49" x2="97" y2="49">
		<stop  offset="0" style="stop-color:#15C6B7"/>
		<stop  offset="0.3032" style="stop-color:#12BDB2"/>
		<stop  offset="0.8057" style="stop-color:#09A3A3"/>
		<stop  offset="0.9944" style="stop-color:#05989D"/>
	</linearGradient>
	<linearGradient id="SVGID_2_" gradientUnits="userSpaceOnUse" x1="0" y1="49" x2="98" y2="49">
		<stop  offset="0" style="stop-color:#F5FDFC"/>
		<stop  offset="0.2491" style="stop-color:#AFE7E4"/>
		<stop  offset="0.5145" style="stop-color:#6BD1CD"/>
		<stop  offset="0.7374" style="stop-color:#39C1BB"/>
		<stop  offset="0.9057" style="stop-color:#1AB8B1"/>
		<stop  offset="1" style="stop-color:#0FB4AD"/>
	</linearGradient>
	<path class="st0" d="M82.09,97H15.91C7.68,97,1,90.32,1,82.09V15.91C1,7.68,7.68,1,15.91,1h66.18C90.32,1,97,7.68,97,15.91v66.18
		C97,90.32,90.32,97,82.09,97z"/>
	
		<linearGradient id="SVGID_3_" gradientUnits="userSpaceOnUse" x1="42.5813" y1="-329.1973" x2="42.5813" y2="-420.2" gradientTransform="matrix(-1.0667 0 0 -1.0667 94.4214 -357.3166)">
		<stop  offset="0" style="stop-color:#FFFFFF"/>
		<stop  offset="1" style="stop-color:#E8EFEE"/>
	</linearGradient>
	<ellipse class="st1" cx="49" cy="49" rx="38.23" ry="38.29"/>
	
		<linearGradient id="SVGID_4_" gradientUnits="userSpaceOnUse" x1="41.7179" y1="-430.1694" x2="41.7179" y2="-342.0245" gradientTransform="matrix(-1.0667 0 0 -1.0667 93.5961 -356.3889)">
		<stop  offset="0" style="stop-color:#FFFFFF"/>
		<stop  offset="1" style="stop-color:#E8EFEE"/>
	</linearGradient>
	<circle class="st2" cx="49.1" cy="49.04" r="37.08"/>
	
		<linearGradient id="SVGID_5_" gradientUnits="userSpaceOnUse" x1="26.0811" y1="-397.5839" x2="58.4853" y2="-365.1797" gradientTransform="matrix(1.0667 0 0 1.0667 3.1098 454.9772)">
		<stop  offset="0" style="stop-color:#1ACEB8"/>
		<stop  offset="1" style="stop-color:#0BBFBA"/>
	</linearGradient>
	<circle class="st3" cx="49.1" cy="49.04" r="33.44"/>
	
		<radialGradient id="SVGID_6_" cx="45.2224" cy="-377.8117" r="33.8504" gradientTransform="matrix(1.0667 0 0 1.0667 3.1098 454.9772)" gradientUnits="userSpaceOnUse">
		<stop  offset="1.000000e-04" style="stop-color:#1ACEB8;stop-opacity:0"/>
		<stop  offset="0.504" style="stop-color:#19CCB7;stop-opacity:0.503"/>
		<stop  offset="0.685" style="stop-color:#17C5B4;stop-opacity:0.685"/>
		<stop  offset="0.814" style="stop-color:#12BAAE;stop-opacity:0.814"/>
		<stop  offset="0.918" style="stop-color:#0CA9A6;stop-opacity:0.918"/>
		<stop  offset="1" style="stop-color:#04959C"/>
	</radialGradient>
	<circle class="st4" cx="49.1" cy="49.04" r="33.44"/>
	
		<linearGradient id="SVGID_7_" gradientUnits="userSpaceOnUse" x1="43.1104" y1="-411.335" x2="43.1104" y2="-403.5674" gradientTransform="matrix(1.0667 0 0 1.0667 3.1098 454.9772)">
		<stop  offset="0" style="stop-color:#FFFFFF"/>
		<stop  offset="1" style="stop-color:#E8EFEE"/>
	</linearGradient>
	<path class="st5" d="M49.21,24.01h-0.24c-0.97,0-1.75-0.78-1.75-1.75v-2.18c0-0.97,0.78-1.75,1.75-1.75h0.24
		c0.97,0,1.75,0.78,1.75,1.75v2.18C50.97,23.23,50.18,24.01,49.21,24.01z"/>
	
		<linearGradient id="SVGID_8_" gradientUnits="userSpaceOnUse" x1="27.7181" y1="-403.2357" x2="27.7181" y2="-395.468" gradientTransform="matrix(0.7543 -0.7543 0.7543 0.7543 309.1176 351.4758)">
		<stop  offset="0" style="stop-color:#FFFFFF"/>
		<stop  offset="1" style="stop-color:#E8EFEE"/>
	</linearGradient>
	<path class="st6" d="M31.48,31.85l-0.17,0.17c-0.68,0.68-1.79,0.68-2.48,0l-1.54-1.54c-0.68-0.68-0.68-1.79,0-2.48l0.17-0.17
		c0.68-0.68,1.79-0.68,2.48,0l1.54,1.54C32.16,30.06,32.16,31.17,31.48,31.85z"/>
	
		<linearGradient id="SVGID_9_" gradientUnits="userSpaceOnUse" x1="49.0378" y1="-373.243" x2="49.0378" y2="-365.4754" gradientTransform="matrix(-0.7543 -0.7543 0.7543 -0.7543 383.8099 -211.0987)">
		<stop  offset="0" style="stop-color:#FFFFFF"/>
		<stop  offset="1" style="stop-color:#E8EFEE"/>
	</linearGradient>
	<path class="st7" d="M70.73,27.84l0.17,0.17c0.68,0.68,0.68,1.79,0,2.48l-1.54,1.54c-0.68,0.68-1.79,0.68-2.48,0l-0.17-0.17
		c-0.68-0.68-0.68-1.79,0-2.48l1.54-1.54C68.94,27.15,70.05,27.15,70.73,27.84z"/>
	
		<linearGradient id="SVGID_10_" gradientUnits="userSpaceOnUse" x1="43.1104" y1="-359.0788" x2="43.1104" y2="-351.312" gradientTransform="matrix(1.0667 0 0 1.0667 3.1098 454.9772)">
		<stop  offset="0" style="stop-color:#FFFFFF"/>
		<stop  offset="1" style="stop-color:#E8EFEE"/>
	</linearGradient>
	<path class="st8" d="M49.21,79.75h-0.24c-0.97,0-1.75-0.78-1.75-1.75v-2.18c0-0.97,0.78-1.75,1.75-1.75h0.24
		c0.97,0,1.75,0.78,1.75,1.75V78C50.97,78.96,50.18,79.75,49.21,79.75z"/>
	
		<linearGradient id="SVGID_11_" gradientUnits="userSpaceOnUse" x1="28.3304" y1="-364.5006" x2="28.3304" y2="-356.7338" gradientTransform="matrix(0.7543 0.7543 -0.7543 0.7543 -262.312 319.2994)">
		<stop  offset="0" style="stop-color:#FFFFFF"/>
		<stop  offset="1" style="stop-color:#E8EFEE"/>
	</linearGradient>
	<path class="st9" d="M28.56,71.34l-0.17-0.17c-0.68-0.68-0.68-1.79,0-2.48l1.54-1.54c0.68-0.68,1.79-0.68,2.48,0l0.17,0.17
		c0.68,0.68,0.68,1.79,0,2.48l-1.54,1.54C30.35,72.02,29.24,72.02,28.56,71.34z"/>
	
		<linearGradient id="SVGID_12_" gradientUnits="userSpaceOnUse" x1="57.9471" y1="-366.7573" x2="57.9471" y2="-358.9905" gradientTransform="matrix(0.7543 -0.7543 0.7543 0.7543 298.2239 384.9831)">
		<stop  offset="0" style="stop-color:#FFFFFF"/>
		<stop  offset="1" style="stop-color:#E8EFEE"/>
	</linearGradient>
	<path class="st10" d="M70.9,70.07l-0.17,0.17c-0.68,0.68-1.79,0.68-2.48,0l-1.54-1.54c-0.68-0.68-0.68-1.79,0-2.48l0.17-0.17
		c0.68-0.68,1.79-0.68,2.48,0l1.54,1.54C71.58,68.28,71.58,69.39,70.9,70.07z"/>
	
		<linearGradient id="SVGID_13_" gradientUnits="userSpaceOnUse" x1="73.6536" y1="-328.7682" x2="65.8852" y2="-419.865" gradientTransform="matrix(1.0667 0 0 1.0667 3.1098 454.9772)">
		<stop  offset="0" style="stop-color:#FFFFFF"/>
		<stop  offset="1" style="stop-color:#E8EFEE"/>
	</linearGradient>
	<path class="st11" d="M74.13,49.16v-0.24c0-0.97,0.78-1.75,1.75-1.75h2.18c0.97,0,1.75,0.78,1.75,1.75v0.24
		c0,0.97-0.78,1.75-1.75,1.75h-2.18C74.91,50.91,74.13,50.13,74.13,49.16z"/>
	
		<linearGradient id="SVGID_14_" gradientUnits="userSpaceOnUse" x1="21.3984" y1="-328.7683" x2="13.6318" y2="-419.8651" gradientTransform="matrix(1.0667 0 0 1.0667 3.1098 454.9772)">
		<stop  offset="0" style="stop-color:#FFFFFF"/>
		<stop  offset="1" style="stop-color:#E8EFEE"/>
	</linearGradient>
	<path class="st12" d="M18.39,49.16v-0.24c0-0.97,0.78-1.75,1.75-1.75h2.18c0.97,0,1.75,0.78,1.75,1.75v0.24
		c0,0.97-0.78,1.75-1.75,1.75h-2.18C19.17,50.91,18.39,50.13,18.39,49.16z"/>
	<g>
		<path class="st13" d="M34.77,38.94c0.44-0.43,0.97-0.76,1.92-0.76c0.96,0,1.47,0.33,1.92,0.76c0.72,0.82,0.83,1.93,0.83,3.2
			c0,1.26-0.11,2.38-0.83,3.2c-0.44,0.43-0.96,0.76-1.92,0.76c-0.95,0-1.47-0.33-1.92-0.76c-0.72-0.82-0.83-1.94-0.83-3.2
			C33.94,40.86,34.04,39.75,34.77,38.94z M36.02,44.27c0.13,0.32,0.39,0.44,0.67,0.44c0.29,0,0.54-0.13,0.67-0.44
			c0.13-0.34,0.21-1.04,0.21-2.13c0-1.1-0.08-1.79-0.21-2.13c-0.13-0.32-0.37-0.44-0.67-0.44c-0.28,0-0.54,0.13-0.67,0.44
			c-0.13,0.34-0.21,1.03-0.21,2.13C35.81,43.23,35.89,43.93,36.02,44.27z"/>
		<path class="st13" d="M45.26,38.35c0.15,0.33,0.33,0.81,0.33,1.11c0,0.18-0.09,0.46-0.25,0.68l-0.46,0.63
			c-1.03,1.43-1.53,2.85-1.67,4.62l-0.05,0.54C42.93,45.97,42.61,46,42.26,46c-0.33,0-0.65-0.02-0.94-0.07l0.05-0.56
			c0.14-1.82,0.82-3.47,1.64-4.55l0.15-0.2c0.13-0.18,0.53-0.63,0.75-0.83l-0.06-0.06c-0.4,0.09-1.29,0.15-1.61,0.15h-1.85
			c-0.06-0.18-0.09-0.41-0.09-0.62c0-0.33,0.07-0.67,0.18-0.91H45.26z"/>
	</g>
	<g>
		<path class="st13" d="M55.99,38.35c0.33-0.06,0.61-0.07,0.87-0.07c0.26,0,0.54,0.01,0.85,0.07v5.23c0,0.28-0.01,0.57-0.01,0.86
			c0.19,0,0.62-0.01,0.79-0.01h0.63c0.06,0.22,0.09,0.5,0.09,0.75s-0.04,0.53-0.09,0.75h-4.87c-0.06-0.23-0.09-0.5-0.09-0.75
			s0.04-0.53,0.09-0.75h0.95c0.16,0,0.56,0.01,0.75,0.01c0-0.29-0.01-0.58-0.01-0.86v-1.53c0-0.32,0.06-0.87,0.08-1.36
			c-0.44,0.49-1.03,0.85-1.55,1.08c-0.35-0.15-0.69-0.6-0.76-1.05C54.87,39.99,55.56,39.24,55.99,38.35z"/>
		<path class="st13" d="M62.74,45.43c0-0.32,0.01-0.55,0.01-0.84c-0.3,0-0.56,0.01-0.87,0.01H60.2c-0.22-0.35-0.39-0.79-0.39-1.12
			c0-0.26,0.12-0.56,0.21-0.76l1.88-4.46c0.53-0.09,1.38,0.06,1.66,0.37l-0.78,1.88c-0.27,0.67-0.84,1.99-1.27,2.61l0.04,0.06
			c0.33-0.04,0.83-0.06,1.19-0.07v-0.23v-0.39c0-0.89,0.46-1.45,1.26-1.45h0.42l0.08,0.07v1.13c0,0.32-0.01,0.55-0.01,0.85
			c0.29,0,0.36-0.01,0.67-0.01h0.32c0.04,0.21,0.05,0.43,0.05,0.64c0,0.25-0.04,0.58-0.12,0.86h-0.91c0,0.29,0.01,0.53,0.01,0.84
			v0.49C64.17,45.98,63.88,46,63.61,46c-0.26,0-0.56-0.01-0.88-0.07V45.43z"/>
	</g>
	<g>
		<path class="st13" d="M37.77,54.58c-0.11,0.11-0.22,0.2-0.34,0.29c1.1,0.15,1.91,0.92,1.91,2.2c0,1.6-1.31,2.53-2.82,2.53
			c-1.08,0-1.98-0.37-2.5-0.85c0.07-0.43,0.39-0.89,0.76-1.18c0.4,0.32,0.91,0.57,1.51,0.57c0.71,0,1.18-0.44,1.18-1.13
			c0-0.65-0.47-1.02-1.03-1.02c-0.22,0-0.43,0.05-0.63,0.14c-0.3-0.14-0.58-0.58-0.68-0.98l1.08-1.11c0.22-0.22,0.61-0.57,0.79-0.72
			l-0.05-0.07c-0.27,0.07-0.91,0.14-1.13,0.14H34.4c-0.11-0.28-0.12-0.54-0.12-0.69c0-0.22,0.02-0.55,0.15-0.84h4.22
			c0.16,0.29,0.36,0.67,0.36,1.06c0,0.27-0.11,0.5-0.35,0.76L37.77,54.58z"/>
		<path class="st13" d="M40.96,52.42c0.44-0.43,0.97-0.76,1.92-0.76c0.96,0,1.47,0.33,1.92,0.76c0.72,0.82,0.83,1.93,0.83,3.2
			c0,1.26-0.11,2.38-0.83,3.2c-0.44,0.43-0.96,0.76-1.92,0.76c-0.95,0-1.47-0.33-1.92-0.76c-0.72-0.82-0.83-1.94-0.83-3.2
			C40.13,54.35,40.24,53.24,40.96,52.42z M42.21,57.75c0.13,0.32,0.39,0.44,0.67,0.44c0.29,0,0.54-0.13,0.67-0.44
			c0.13-0.34,0.21-1.04,0.21-2.13c0-1.1-0.08-1.79-0.21-2.13c-0.13-0.32-0.37-0.44-0.67-0.44c-0.28,0-0.54,0.13-0.67,0.44
			C42.09,53.84,42,54.53,42,55.63C42,56.71,42.09,57.42,42.21,57.75z"/>
	</g>
	<g>
		<path class="st13" d="M54.55,52.42c0.44-0.43,0.97-0.76,1.92-0.76c0.96,0,1.47,0.33,1.92,0.76c0.72,0.82,0.83,1.93,0.83,3.2
			c0,1.26-0.1,2.38-0.83,3.2c-0.44,0.43-0.96,0.76-1.92,0.76c-0.95,0-1.47-0.33-1.92-0.76c-0.72-0.82-0.83-1.94-0.83-3.2
			C53.72,54.35,53.83,53.24,54.55,52.42z M55.8,57.75c0.13,0.32,0.39,0.44,0.67,0.44c0.29,0,0.54-0.13,0.67-0.44
			c0.13-0.34,0.21-1.04,0.21-2.13c0-1.1-0.08-1.79-0.21-2.13c-0.13-0.32-0.37-0.44-0.67-0.44c-0.28,0-0.54,0.13-0.67,0.44
			c-0.13,0.34-0.21,1.03-0.21,2.13C55.59,56.71,55.68,57.42,55.8,57.75z"/>
		<path class="st13" d="M64.97,52.59c0,0.49-0.28,0.76-0.77,0.76h-1.92h-0.09v0.32l-0.05,0.55l-0.04,0.2
			c0.2-0.05,0.41-0.07,0.63-0.07c1.59,0,2.5,1,2.5,2.49c0,1.88-1.45,2.76-2.9,2.76c-0.9,0-1.77-0.29-2.34-0.81
			c0.06-0.34,0.37-0.94,0.74-1.19c0.46,0.33,0.91,0.53,1.44,0.53c0.65,0,1.2-0.42,1.2-1.2c0-0.82-0.55-1.18-1.18-1.18
			c-0.36,0-0.68,0.13-0.99,0.36c-0.32-0.07-0.72-0.35-0.91-0.63l0.21-3.53l0.09-0.09h4.24C64.96,52.14,64.97,52.41,64.97,52.59z"/>
	</g>
</g>
</svg>
